<svg id="Layer_1" data-name="Layer 1" xmlns="http://www.w3.org/2000/svg" xmlns:xlink="http://www.w3.org/1999/xlink" viewBox="0 0 1080 1080"><defs><style>.cls-1{fill:url(#linear-gradient);}.cls-2{fill:#e0042a;}.cls-3{fill:url(#linear-gradient-2);}.cls-4{fill:url(#linear-gradient-3);}.cls-5{fill:#3c1220;}.cls-6{fill:url(#linear-gradient-4);}.cls-7{fill:url(#linear-gradient-5);}.cls-8{fill:#a90118;}.cls-9{fill:url(#linear-gradient-6);}.cls-10{fill:url(#linear-gradient-7);}.cls-11{fill:url(#linear-gradient-8);}.cls-12{fill:url(#linear-gradient-9);}.cls-13{fill:url(#linear-gradient-10);}.cls-14{fill:url(#linear-gradient-11);}.cls-15{fill:url(#linear-gradient-12);}.cls-16{fill:#df0520;}.cls-17{fill:#bb112c;}.cls-18{fill:url(#linear-gradient-13);}.cls-19{fill:url(#linear-gradient-14);}.cls-20{fill:url(#linear-gradient-15);}.cls-21{fill:url(#linear-gradient-16);}.cls-22{fill:url(#linear-gradient-17);}.cls-23{fill:url(#linear-gradient-18);}.cls-24{fill:url(#linear-gradient-19);}.cls-25{fill:url(#linear-gradient-20);}.cls-26{fill:url(#linear-gradient-21);}.cls-27{fill:url(#linear-gradient-22);}.cls-28{fill:url(#linear-gradient-23);}.cls-29{fill:url(#linear-gradient-24);}.cls-30{fill:url(#linear-gradient-25);}.cls-31{fill:url(#linear-gradient-26);}.cls-32{fill:url(#linear-gradient-27);}.cls-33{fill:url(#linear-gradient-28);}.cls-34{fill:url(#linear-gradient-29);}.cls-35{fill:url(#linear-gradient-30);}.cls-36{fill:url(#linear-gradient-31);}.cls-37{fill:url(#linear-gradient-32);}.cls-38{fill:url(#linear-gradient-33);}.cls-39{fill:url(#linear-gradient-34);}.cls-40{fill:url(#linear-gradient-35);}.cls-41{fill:url(#linear-gradient-36);}.cls-42{fill:url(#linear-gradient-37);}.cls-43{fill:url(#linear-gradient-38);}.cls-44{fill:url(#linear-gradient-39);}.cls-45{fill:url(#linear-gradient-40);}.cls-46{fill:url(#linear-gradient-41);}.cls-47{fill:url(#linear-gradient-42);}.cls-48{fill:url(#linear-gradient-43);}.cls-49{fill:url(#linear-gradient-44);}.cls-50{fill:url(#linear-gradient-45);}.cls-51{fill:#231f20;}</style><linearGradient id="linear-gradient" x1="381.62" y1="661.3" x2="603.73" y2="528.84" gradientUnits="userSpaceOnUse"><stop offset="0" stop-color="#ab1604"/><stop offset="1" stop-color="#dc143c"/></linearGradient><linearGradient id="linear-gradient-2" x1="272.94" y1="540" x2="326.44" y2="540" gradientUnits="userSpaceOnUse"><stop offset="0" stop-color="#6c1220"/><stop offset="1" stop-color="#3c1220"/></linearGradient><linearGradient id="linear-gradient-3" x1="379.96" x2="433.48" xlink:href="#linear-gradient-2"/><linearGradient id="linear-gradient-4" x1="165.93" x2="219.43" xlink:href="#linear-gradient-2"/><linearGradient id="linear-gradient-5" x1="379.96" y1="406.73" x2="433.48" y2="406.73" xlink:href="#linear-gradient-2"/><linearGradient id="linear-gradient-6" x1="353.2" y1="206.31" x2="353.2" y2="427.28" gradientUnits="userSpaceOnUse"><stop offset="0" stop-color="#fff"/><stop offset="0.24" stop-color="#e5e8ee"/><stop offset="0.49" stop-color="#d2d6e0"/><stop offset="0.74" stop-color="#c6cbd9"/><stop offset="1" stop-color="#c2c8d6"/></linearGradient><linearGradient id="linear-gradient-7" x1="379.96" y1="299.71" x2="433.48" y2="299.71" xlink:href="#linear-gradient-2"/><linearGradient id="linear-gradient-8" x1="433.48" y1="299.71" x2="486.98" y2="299.71" gradientUnits="userSpaceOnUse"><stop offset="0" stop-color="#dc143c"/><stop offset="1" stop-color="#ab1604"/></linearGradient><linearGradient id="linear-gradient-9" x1="486.98" y1="299.71" x2="593.02" y2="299.71" xlink:href="#linear-gradient-2"/><linearGradient id="linear-gradient-10" x1="433.47" y1="137.94" x2="646.53" y2="137.94" xlink:href="#linear-gradient-8"/><linearGradient id="linear-gradient-11" x1="219.43" y1="272.96" x2="326.44" y2="272.96" xlink:href="#linear-gradient-2"/><linearGradient id="linear-gradient-12" x1="112.42" y1="540" x2="165.93" y2="540" xlink:href="#linear-gradient-8"/><linearGradient id="linear-gradient-13" x1="326.44" y1="540" x2="539.52" y2="540" xlink:href="#linear-gradient-8"/><linearGradient id="linear-gradient-14" x1="486.98" y1="673.26" x2="593.02" y2="673.26" xlink:href="#linear-gradient-2"/><linearGradient id="linear-gradient-15" x1="379.96" y1="673.26" x2="433.48" y2="673.26" xlink:href="#linear-gradient-2"/><linearGradient id="linear-gradient-16" x1="272.93" y1="673.26" x2="326.44" y2="673.26" xlink:href="#linear-gradient-2"/><linearGradient id="linear-gradient-17" x1="353.2" y1="686.89" x2="353.2" y2="907.86" xlink:href="#linear-gradient-6"/><linearGradient id="linear-gradient-18" x1="379.96" y1="780.29" x2="433.48" y2="780.29" xlink:href="#linear-gradient-2"/><linearGradient id="linear-gradient-19" x1="433.48" y1="780.29" x2="486.98" y2="780.29" xlink:href="#linear-gradient-8"/><linearGradient id="linear-gradient-20" x1="433.47" y1="940.53" x2="646.53" y2="940.53" xlink:href="#linear-gradient-8"/><linearGradient id="linear-gradient-21" x1="219.43" y1="807.04" x2="326.44" y2="807.04" xlink:href="#linear-gradient-2"/><linearGradient id="linear-gradient-22" x1="432.5" y1="887.02" x2="646.53" y2="887.02" xlink:href="#linear-gradient-2"/><linearGradient id="linear-gradient-23" x1="432.5" y1="191.44" x2="646.53" y2="191.44" xlink:href="#linear-gradient-2"/><linearGradient id="linear-gradient-24" x1="753.56" x2="807.06" xlink:href="#linear-gradient-2"/><linearGradient id="linear-gradient-25" x1="646.52" x2="700.04" xlink:href="#linear-gradient-2"/><linearGradient id="linear-gradient-26" x1="860.57" x2="914.07" xlink:href="#linear-gradient-2"/><linearGradient id="linear-gradient-27" x1="540.48" y1="540" x2="753.56" y2="540" xlink:href="#linear-gradient-8"/><linearGradient id="linear-gradient-28" x1="486.98" y1="406.73" x2="593.02" y2="406.73" xlink:href="#linear-gradient-2"/><linearGradient id="linear-gradient-29" x1="646.52" y1="406.73" x2="700.04" y2="406.73" xlink:href="#linear-gradient-2"/><linearGradient id="linear-gradient-30" x1="807.07" y1="406.73" x2="860.57" y2="406.73" xlink:href="#linear-gradient-8"/><linearGradient id="linear-gradient-31" x1="753.56" y1="406.73" x2="807.07" y2="406.73" xlink:href="#linear-gradient-2"/><linearGradient id="linear-gradient-32" x1="726.8" y1="206.31" x2="726.8" y2="427.28" xlink:href="#linear-gradient-6"/><linearGradient id="linear-gradient-33" x1="646.52" y1="299.71" x2="700.04" y2="299.71" xlink:href="#linear-gradient-2"/><linearGradient id="linear-gradient-34" x1="593.02" y1="299.71" x2="646.52" y2="299.71" xlink:href="#linear-gradient-8"/><linearGradient id="linear-gradient-35" x1="753.56" y1="272.96" x2="860.57" y2="272.96" xlink:href="#linear-gradient-2"/><linearGradient id="linear-gradient-36" x1="914.07" y1="540" x2="967.58" y2="540" xlink:href="#linear-gradient-8"/><linearGradient id="linear-gradient-37" x1="443.58" y1="540" x2="607.63" y2="540" gradientUnits="userSpaceOnUse"><stop offset="0" stop-color="#3a1220"/><stop offset="1" stop-color="#80151f"/></linearGradient><linearGradient id="linear-gradient-38" x1="646.52" y1="673.26" x2="700.04" y2="673.26" xlink:href="#linear-gradient-2"/><linearGradient id="linear-gradient-39" x1="807.07" y1="673.26" x2="860.57" y2="673.26" xlink:href="#linear-gradient-8"/><linearGradient id="linear-gradient-40" x1="753.56" y1="673.26" x2="807.07" y2="673.26" xlink:href="#linear-gradient-2"/><linearGradient id="linear-gradient-41" x1="726.8" y1="686.89" x2="726.8" y2="907.86" xlink:href="#linear-gradient-6"/><linearGradient id="linear-gradient-42" x1="646.52" y1="780.29" x2="700.04" y2="780.29" xlink:href="#linear-gradient-2"/><linearGradient id="linear-gradient-43" x1="593.02" y1="780.29" x2="646.52" y2="780.29" xlink:href="#linear-gradient-8"/><linearGradient id="linear-gradient-44" x1="486.98" y1="780.29" x2="593.02" y2="780.29" xlink:href="#linear-gradient-2"/><linearGradient id="linear-gradient-45" x1="753.56" y1="807.04" x2="860.57" y2="807.04" xlink:href="#linear-gradient-2"/></defs><path class="cls-1" d="M632.21,540.5a91.71,91.71,0,0,1-183.42,0Z"/><path class="cls-2" d="M488.46,447l-1.48.84h0C487.47,447.5,488,447.22,488.46,447Z"/><path class="cls-2" d="M539.76,433.48h0Z"/><path class="cls-2" d="M540.15,433.48h0Z"/><path class="cls-2" d="M433.49,540.13a1.28,1.28,0,0,0,0,.19v-.43A1.85,1.85,0,0,0,433.49,540.13Z"/><path class="cls-2" d="M433.48,539.5c0-.2,0-.39,0-.59,0,.19,0,.39,0,.59a1.27,1.27,0,0,0,0,.2Z"/><path class="cls-2" d="M451.12,481.6q-1.74,2.64-3.33,5.4c-.29.49-.57,1-.84,1.48.27-.5.55-1,.83-1.48Q449.37,484.24,451.12,481.6Z"/><path class="cls-2" d="M454.76,476.43q-1.89,2.54-3.64,5.17C452.28,479.84,453.5,478.12,454.76,476.43Z"/><rect class="cls-3" x="272.94" y="487" width="53.5" height="106"/><path class="cls-4" d="M433.48,539.5h0a1.41,1.41,0,0,0,0,.2v0a.14.14,0,0,0,0,.09v.57a.28.28,0,0,0,0,.09h0V593H380V487h53.52Z"/><path class="cls-5" d="M433.48,539.5v.2a1.41,1.41,0,0,1,0-.2Z"/><path class="cls-5" d="M433.47,540.5a.28.28,0,0,1,0-.09v.09Z"/><rect class="cls-6" x="165.93" y="487" width="53.5" height="106"/><path class="cls-2" d="M451.12,481.6q-1.74,2.64-3.33,5.4h0Q449.37,484.24,451.12,481.6Z"/><path class="cls-2" d="M454.76,476.43q-1.89,2.54-3.64,5.17C452.28,479.84,453.5,478.12,454.76,476.43Z"/><path class="cls-2" d="M488.46,447l-1.48.84h0C487.47,447.5,488,447.22,488.46,447Z"/><path class="cls-2" d="M539.76,433.48h0Z"/><path class="cls-2" d="M540.15,433.48h0Z"/><rect class="cls-7" x="379.96" y="379.99" width="53.52" height="53.49"/><path class="cls-8" d="M219.43,433.48h53.5V380a53.47,53.47,0,0,0-53.5,53.49Z"/><rect class="cls-5" x="272.93" y="379.99" width="53.52" height="53.5"/><rect class="cls-9" x="326.44" y="272.95" width="53.52" height="53.52"/><rect class="cls-10" x="379.96" y="272.95" width="53.52" height="53.52"/><rect class="cls-11" x="433.48" y="272.95" width="53.5" height="53.52"/><rect class="cls-12" x="486.98" y="272.95" width="106.04" height="53.52"/><path class="cls-13" d="M646.53,164.7H433.47A53.48,53.48,0,0,1,487,111.18H593a53.48,53.48,0,0,1,53.5,53.52Z"/><path class="cls-14" d="M326.44,219.45v107h-107A53.52,53.52,0,0,1,272.94,273a53.5,53.5,0,0,1,53.5-53.5Z"/><path class="cls-15" d="M165.93,487V593a53.5,53.5,0,0,1-53.51-52.5v-.33a1,1,0,0,1,0-.17v-.5A53.5,53.5,0,0,1,165.93,487Z"/><path class="cls-16" d="M112.42,540c0,.17,0,.33,0,.5h0C112.41,540.33,112.41,540.17,112.42,540Z"/><path class="cls-17" d="M451.12,481.6q-1.74,2.64-3.33,5.4c-.29.49-.57,1-.84,1.48.27-.5.55-1,.83-1.48Q449.37,484.24,451.12,481.6Z"/><path class="cls-17" d="M454.76,476.43q-1.89,2.54-3.64,5.17C452.28,479.84,453.5,478.12,454.76,476.43Z"/><path class="cls-17" d="M433.49,540.5h0a.28.28,0,0,1,0-.09A.28.28,0,0,0,433.49,540.5Z"/><path class="cls-17" d="M433.49,540.13a1.28,1.28,0,0,0,0,.19v-.43A1.85,1.85,0,0,0,433.49,540.13Z"/><path class="cls-17" d="M433.5,538.91c0,.19,0,.39,0,.59a1.27,1.27,0,0,0,0,.2v-.2C433.48,539.3,433.49,539.11,433.5,538.91Z"/><path class="cls-17" d="M488.46,447l-1.48.84h0C487.47,447.5,488,447.22,488.46,447Z"/><path class="cls-17" d="M540.15,433.48h0Z"/><path class="cls-17" d="M540.48,433.48h0Z"/><path class="cls-2" d="M488.46,633.05c-.5-.27-1-.55-1.48-.83h0Z"/><path class="cls-2" d="M539.71,646.52h0Z"/><path class="cls-2" d="M540.15,646.52h0Z"/><path class="cls-2" d="M433.49,540.13a1.28,1.28,0,0,0,0,.19v-.43A1.85,1.85,0,0,0,433.49,540.13Z"/><path class="cls-2" d="M433.5,541c0-.16,0-.32,0-.48v-.09a.28.28,0,0,0,0,.09C433.49,540.66,433.49,540.82,433.5,541Z"/><path class="cls-2" d="M448.68,594.51c-.31-.5-.61-1-.9-1.51s-.56-1-.83-1.48c.27.49.55,1,.84,1.48S448.38,594,448.68,594.51Z"/><path class="cls-5" d="M433.48,539.5v.2a1.41,1.41,0,0,1,0-.2Z"/><path class="cls-5" d="M433.47,540.5a.28.28,0,0,1,0-.09v.09Z"/><path class="cls-18" d="M433.48,539.5V487H380V593h53.52V540.5c0,.16,0,.32,0,.48v.34l0,1c0,.17,0,.34,0,.51s0,.34,0,.51c0,.46,0,.93.06,1.38s0,.92.07,1.37c0,.62.07,1.25.13,1.87,0,.06,0,.11,0,.17l0,.37c0,.46.08.93.13,1.39,0,.17,0,.33.05.5,0,.51.1,1,.16,1.55s.12,1,.19,1.54l0,.21a1,1,0,0,1,0,.17c.08.58.16,1.16.25,1.73l.21,1.39c.09.5.17,1,.26,1.5.14.78.29,1.56.45,2.33.11.56.23,1.13.36,1.7q.38,1.73.81,3.42c.14.56.28,1.11.43,1.66s.37,1.35.57,2,.43,1.47.67,2.2.37,1.16.57,1.74l.09.28q.15.48.33,1c.19.56.39,1.11.59,1.66.06.17.12.34.19.51.21.56.42,1.12.65,1.67.09.24.19.49.29.73.17.46.36.91.55,1.36s.3.73.46,1.09.43,1,.66,1.5l.25.55c.24.52.48,1,.73,1.56s.49,1,.75,1.54.56,1.12.85,1.68l.72,1.35c.26.5.54,1,.82,1.5s.55,1,.83,1.48.59,1,.9,1.51c.61,1,1.23,2,1.86,3s1.18,1.79,1.78,2.67c.44.64.89,1.28,1.35,1.91q.94,1.3,1.92,2.58c.33.42.65.84,1,1.26q1.13,1.44,2.31,2.82c.76.89,1.53,1.77,2.31,2.63s1.58,1.72,2.39,2.56l1.23,1.24h0l.61.61c.42.42.85.83,1.28,1.23s.82.78,1.23,1.16.9.83,1.36,1.23c.68.61,1.36,1.2,2.06,1.79s1.39,1.18,2.1,1.74,1.23,1,1.86,1.47l0,0c.45.35.91.69,1.37,1l1.39,1c1.09.79,2.2,1.55,3.33,2.29q.89.6,1.8,1.17l1.29.81.18.11c.56.35,1.12.69,1.69,1l.56.33h0c.49.28,1,.56,1.48.83l1.49.82h0l1.52.8,1.83.92,1.23.59,1.56.73,1.57.7,1.58.67,1.59.65,1.34.53c.34.13.69.27,1.05.39l1.41.51,1.05.37,1.46.49.28.09,1.56.49,1.66.5c1.12.33,2.24.63,3.37.92s2.11.52,3.18.76,2.15.46,3.23.66l1.22.22,1,.17,1.75.28,1.76.25,1.26.16,1.27.15c.53.06,1.06.12,1.59.16l1.21.11c.52.05,1,.09,1.58.12l.3,0,1.71.09,1.81.08,1.82,0H380A53.48,53.48,0,0,0,326.44,593V487A53.48,53.48,0,0,0,380,433.48H539.52c-.9,0-1.78,0-2.67.05l-1.81.08c-.57,0-1.14.06-1.71.1l-.3,0c-.53,0-1.06.07-1.58.12l-1.21.11c-.53,0-1.06.1-1.59.16l-1.27.15-1.26.16-1.76.25c-.91.14-1.81.28-2.71.45l-1.22.22c-1.08.2-2.16.42-3.23.66s-2.13.49-3.18.76-2.25.59-3.37.92l-1.66.5c-.62.18-1.23.38-1.84.58l-1.46.49-1.05.37-1.41.51c-.36.12-.71.26-1.05.39l-1.34.53-1.59.65-1.58.67-1.57.7q-2.36,1.07-4.62,2.24l-1.52.8h0l-1.49.82c-.5.27-1,.55-1.48.83h0a106.8,106.8,0,0,0-17.66,12.81c-.46.4-.91.81-1.36,1.23s-.82.76-1.23,1.16-.86.81-1.28,1.23l-.61.61h0l-1.23,1.24c-.81.84-1.61,1.69-2.39,2.56s-1.55,1.74-2.31,2.63c-.52.61-1,1.23-1.54,1.85-.88,1.09-1.74,2.19-2.59,3.32-1.26,1.69-2.48,3.41-3.64,5.17s-2.28,3.56-3.34,5.4c-.28.49-.56,1-.83,1.48-.84,1.49-1.63,3-2.39,4.53-.26.51-.51,1-.75,1.54-.34.7-.66,1.4-1,2.11q-.34.75-.66,1.5c-.45,1-.89,2.11-1.3,3.18-.23.55-.44,1.11-.65,1.67-.07.17-.13.34-.19.51-.2.55-.4,1.1-.59,1.66q-.18.48-.33,1c-.23.67-.45,1.34-.66,2s-.46,1.46-.67,2.2-.39,1.34-.57,2-.29,1.1-.43,1.66q-.43,1.69-.81,3.42c-.13.57-.25,1.14-.36,1.7-.16.77-.31,1.55-.45,2.33-.09.5-.17,1-.26,1.5l-.21,1.39c-.09.57-.17,1.15-.25,1.73a1,1,0,0,1,0,.17l0,.21c-.1.75-.19,1.51-.26,2.26,0,.28-.06.55-.09.83s0,.33-.05.5c-.05.46-.09.93-.13,1.39l0,.37-.09,1.25c0,.26,0,.52-.05.79,0,.45-.05.91-.07,1.37s-.05.92-.06,1.38c0,.17,0,.34,0,.51s0,.34,0,.51l0,1v.23C433.49,539.11,433.48,539.3,433.48,539.5Z"/><path class="cls-2" d="M448.68,594.51c-.31-.5-.61-1-.9-1.51h0C448.08,593.51,448.38,594,448.68,594.51Z"/><path class="cls-2" d="M488.46,633.05c-.5-.27-1-.55-1.48-.83h0Z"/><path class="cls-2" d="M539.71,646.52h0Z"/><path class="cls-2" d="M540.15,646.52h0Z"/><path class="cls-19" d="M593,646.52V700H487V646.52H593Z"/><rect class="cls-20" x="379.96" y="646.52" width="53.52" height="53.49"/><path class="cls-8" d="M272.93,646.52V700a53.47,53.47,0,0,1-53.5-53.49Z"/><rect class="cls-21" x="272.93" y="646.52" width="53.51" height="53.49"/><rect class="cls-22" x="326.44" y="753.53" width="53.52" height="53.52"/><rect class="cls-23" x="379.96" y="753.53" width="53.52" height="53.52"/><rect class="cls-24" x="433.48" y="753.53" width="53.5" height="53.52"/><path class="cls-25" d="M646.53,913.78A53.48,53.48,0,0,1,593,967.29H487a53.48,53.48,0,0,1-53.5-53.51Z"/><path class="cls-26" d="M326.44,753.53v107a53.5,53.5,0,0,1-53.5-53.5,53.52,53.52,0,0,1-53.51-53.52Z"/><path class="cls-16" d="M112.42,539.5c0,.17,0,.33,0,.5,0-.17,0-.33,0-.5Z"/><path class="cls-17" d="M433.49,539.5a1.27,1.27,0,0,0,0,.2,1.41,1.41,0,0,1,0-.2Z"/><path class="cls-17" d="M433.49,540.13a1.28,1.28,0,0,0,0,.19v-.43A1.85,1.85,0,0,0,433.49,540.13Z"/><path class="cls-17" d="M433.5,541c0-.16,0-.32,0-.48v-.09a.28.28,0,0,0,0,.09C433.49,540.66,433.49,540.82,433.5,541Z"/><path class="cls-17" d="M448.68,594.51c-.31-.5-.61-1-.9-1.51s-.56-1-.83-1.48c.27.49.55,1,.84,1.48S448.38,594,448.68,594.51Z"/><path class="cls-17" d="M488.46,633.05c-.5-.27-1-.55-1.48-.83h0Z"/><path class="cls-17" d="M540.15,646.52h0Z"/><path class="cls-17" d="M540.48,646.51h0Z"/><rect class="cls-27" x="432.5" y="860.27" width="214.03" height="53.51"/><rect class="cls-28" x="432.5" y="164.69" width="214.03" height="53.51"/><path class="cls-2" d="M540.15,433.48h0Z"/><path class="cls-2" d="M540.48,433.48h0Z"/><path class="cls-2" d="M593,447.78h0l-1.48-.84C592,447.22,592.53,447.5,593,447.78Z"/><path class="cls-2" d="M625.24,476.43c1.26,1.69,2.48,3.41,3.64,5.17Q627.13,479,625.24,476.43Z"/><path class="cls-2" d="M632.22,487c.28.49.56,1,.83,1.48-.27-.49-.55-1-.84-1.48q-1.59-2.76-3.33-5.4Q630.64,484.24,632.22,487Z"/><path class="cls-2" d="M646.52,539.5v.16a.81.81,0,0,0,0-.16c0-.2,0-.4,0-.59C646.51,539.11,646.52,539.3,646.52,539.5Z"/><path class="cls-2" d="M646.52,540v.28a.22.22,0,0,0,0-.08v-.07A.53.53,0,0,0,646.52,540Z"/><rect class="cls-29" x="753.56" y="487" width="53.5" height="106"/><path class="cls-30" d="M700,487V593H646.52V540.5h0a1.55,1.55,0,0,0,0-.22v-.53a.27.27,0,0,0,0-.09.86.86,0,0,0,0-.16h0V487Z"/><path class="cls-5" d="M646.52,540.28a1.55,1.55,0,0,1,0,.22h0Z"/><path class="cls-5" d="M646.53,539.5a.86.86,0,0,1,0,.16v-.16Z"/><rect class="cls-31" x="860.57" y="487" width="53.5" height="106"/><path class="cls-2" d="M540.15,433.48h0Z"/><path class="cls-32" d="M753.56,487V593A53.48,53.48,0,0,0,700,646.52H541.33l1.82,0,1.81-.08,1.71-.09.3,0c.53,0,1.06-.07,1.58-.12l1.21-.11c.53,0,1.06-.1,1.59-.16s.85-.09,1.27-.15l1.26-.16,1.76-.25,1.75-.28,1-.17,1.22-.22c1.08-.2,2.16-.42,3.23-.66l1.48-.35,1.7-.41c1.13-.29,2.25-.59,3.37-.92l1.66-.5,1.56-.49.28-.09,1.46-.49,1.05-.37,1.41-.51c.36-.12.71-.26,1.05-.39l1.34-.53,1.59-.65,1.58-.67,1.57-.7,1.56-.73,1.23-.59,1.83-.92,1.52-.8h0l1.49-.82c.5-.27,1-.55,1.48-.83h0l.56-.33c.57-.33,1.13-.67,1.69-1l.18-.11,1.29-.81c.6-.36,1.18-.74,1.76-1.14l0,0c.45-.29.9-.6,1.34-.9.67-.45,1.33-.92,2-1.39l1.39-1c.46-.34.92-.68,1.37-1l0,0q.95-.72,1.86-1.47,1.07-.84,2.1-1.74c.35-.28.69-.58,1-.89s.68-.59,1-.9.91-.81,1.36-1.23.82-.76,1.23-1.16.86-.81,1.28-1.23l.61-.61h0l1.23-1.24c.81-.84,1.61-1.69,2.39-2.56s1.56-1.74,2.31-2.63,1.56-1.86,2.31-2.82c.34-.42.66-.84,1-1.26s.71-.93,1.05-1.4.59-.79.87-1.18c.46-.63.91-1.27,1.35-1.91.6-.88,1.2-1.77,1.78-2.67s1.25-2,1.86-3c.31-.5.61-1,.9-1.51s.56-1,.83-1.48.55-1,.82-1.5l.72-1.35c.29-.56.57-1.12.85-1.68s.51-1,.75-1.54.49-1,.73-1.56l.25-.55q.35-.75.66-1.5c.16-.36.31-.73.46-1.09s.38-.9.55-1.36c.1-.24.2-.49.29-.73.23-.55.44-1.11.65-1.67.07-.17.13-.34.19-.51.2-.55.4-1.1.59-1.66q.18-.48.33-1l.09-.28c.2-.58.39-1.15.57-1.74s.46-1.46.67-2.2.39-1.34.57-2,.29-1.1.43-1.66q.43-1.69.81-3.42c.13-.57.25-1.14.36-1.7.16-.77.31-1.55.45-2.33.09-.5.17-1,.26-1.5l.21-1.39c.09-.57.17-1.15.25-1.73a1,1,0,0,1,0-.17l0-.21c.07-.52.13-1,.19-1.54.13-1.14.25-2.29.34-3.44l0-.37c0-.06,0-.11,0-.17.06-.62.1-1.25.13-1.87,0-.45.06-.91.07-1.37s0-.92.06-1.38c0-.17,0-.34,0-.51,0-.51,0-1,0-1.55V541a.49.49,0,0,1,0-.12c0-.12,0-.24,0-.36V593H700V487H646.52v52.5c0-.2,0-.39,0-.59v-.23l0-1c0-.17,0-.34,0-.51s0-.34,0-.51c0-.46,0-.93-.06-1.38s0-.92-.07-1.37c0-.27,0-.53,0-.79l-.09-1.25,0-.37c0-.46-.08-.93-.13-1.39,0-.17,0-.33,0-.5s-.05-.55-.09-.83c-.07-.75-.16-1.51-.26-2.26l0-.21a1,1,0,0,1,0-.17c-.08-.58-.16-1.16-.25-1.73L645.1,523c-.09-.5-.17-1-.26-1.5-.14-.78-.29-1.56-.45-2.33-.11-.56-.23-1.13-.36-1.7q-.37-1.73-.81-3.42c-.14-.56-.28-1.11-.43-1.66s-.37-1.35-.57-2-.43-1.47-.67-2.2-.43-1.35-.66-2q-.15-.48-.33-1c-.19-.56-.39-1.11-.59-1.66-.06-.17-.12-.34-.19-.51-.21-.56-.42-1.12-.65-1.67-.41-1.07-.85-2.13-1.3-3.18q-.32-.75-.66-1.5c-.32-.71-.64-1.41-1-2.11-.24-.51-.49-1-.75-1.54-.76-1.53-1.55-3-2.39-4.53-.27-.5-.55-1-.83-1.48q-1.59-2.76-3.34-5.4c-1.16-1.76-2.38-3.48-3.64-5.17-.85-1.13-1.71-2.23-2.59-3.32-.51-.62-1-1.24-1.54-1.85-.75-.89-1.52-1.77-2.31-2.63s-1.58-1.72-2.39-2.56l-1.23-1.24h0l-.61-.61c-.42-.42-.85-.83-1.28-1.23s-.82-.78-1.23-1.16-.9-.83-1.36-1.23A106.8,106.8,0,0,0,593,447.79h0c-.49-.28-1-.56-1.48-.83l-1.49-.82h0l-1.52-.8q-2.26-1.17-4.62-2.24l-1.57-.7-1.58-.67-1.59-.65-1.34-.53c-.34-.13-.69-.27-1.05-.39l-1.41-.51-1.05-.37-1.46-.49c-.61-.2-1.22-.4-1.84-.58l-1.66-.5c-1.12-.33-2.24-.63-3.37-.92s-2.11-.52-3.18-.76-2.15-.46-3.23-.66l-1.22-.22c-.9-.17-1.8-.31-2.71-.45l-1.76-.25-1.26-.16-1.27-.15c-.53-.06-1.06-.12-1.59-.16l-1.21-.11c-.52-.05-1-.09-1.58-.12l-.3,0c-.57,0-1.14-.08-1.71-.1l-1.81-.08c-.89,0-1.77-.05-2.67-.05H700A53.48,53.48,0,0,0,753.56,487Z"/><path class="cls-2" d="M540.48,433.48h0Z"/><path class="cls-2" d="M591.54,447c.5.27,1,.55,1.48.83h0Z"/><path class="cls-2" d="M625.24,476.43c1.26,1.69,2.48,3.41,3.64,5.17Q627.13,479,625.24,476.43Z"/><path class="cls-2" d="M632.22,487h0q-1.59-2.76-3.33-5.4Q630.64,484.24,632.22,487Z"/><rect class="cls-33" x="486.98" y="379.99" width="106.04" height="53.49"/><rect class="cls-34" x="646.52" y="379.99" width="53.52" height="53.49"/><path class="cls-35" d="M860.57,433.48h-53.5V380a53.47,53.47,0,0,1,53.5,53.49Z"/><rect class="cls-36" x="753.56" y="379.99" width="53.51" height="53.49"/><rect class="cls-37" x="700.04" y="272.95" width="53.52" height="53.52"/><rect class="cls-38" x="646.52" y="272.95" width="53.52" height="53.52"/><rect class="cls-39" x="593.02" y="272.95" width="53.5" height="53.52"/><path class="cls-40" d="M860.57,326.47h-107v-107a53.5,53.5,0,0,1,53.5,53.5,53.52,53.52,0,0,1,53.51,53.52Z"/><path class="cls-41" d="M967.58,539.5v.33a1,1,0,0,1,0,.17,1,1,0,0,1,0,.17v.33A53.5,53.5,0,0,1,914.07,593V487a53.5,53.5,0,0,1,53.51,52.5Z"/><path class="cls-16" d="M967.59,540.5h0c0-.17,0-.33,0-.5C967.59,540.17,967.59,540.33,967.59,540.5Z"/><path class="cls-42" d="M646.51,539.5c0-.2,0-.4,0-.59v-.23l0-1c0-.17,0-.34,0-.51s0-.34,0-.51l-.06-1.38c0-.46,0-.92-.07-1.37,0-.27,0-.53,0-.79l-.09-1.25,0-.37c0-.46-.08-.93-.13-1.39,0-.17,0-.33,0-.5s-.05-.55-.09-.83c-.07-.75-.16-1.51-.26-2.26l0-.21a1,1,0,0,1,0-.17c-.08-.58-.16-1.16-.25-1.73L645.1,523c-.09-.5-.17-1-.26-1.5-.14-.78-.29-1.56-.45-2.33-.11-.56-.23-1.13-.36-1.7q-.37-1.73-.81-3.42c-.14-.56-.28-1.11-.43-1.66s-.37-1.35-.57-2-.44-1.47-.67-2.2-.43-1.35-.66-2q-.15-.48-.33-1c-.19-.56-.39-1.11-.59-1.66-.06-.17-.12-.34-.19-.51-.21-.56-.42-1.12-.65-1.67-.41-1.07-.85-2.13-1.3-3.18q-.32-.75-.66-1.5c-.32-.71-.64-1.41-1-2.11-.24-.51-.49-1-.75-1.54-.76-1.53-1.55-3-2.39-4.53-.27-.49-.55-1-.84-1.48q-1.59-2.76-3.33-5.4t-3.64-5.17c-.85-1.13-1.71-2.23-2.59-3.32-.51-.62-1-1.24-1.54-1.85-.76-.89-1.53-1.77-2.31-2.63s-1.58-1.72-2.39-2.56l-1.23-1.24h0l-.61-.61c-.42-.42-.85-.83-1.28-1.23s-.82-.78-1.23-1.16-.9-.83-1.36-1.23A106.8,106.8,0,0,0,593,447.79h0l-1.48-.84-1.49-.82h0l-1.52-.8q-2.26-1.17-4.62-2.24l-1.57-.7-1.58-.67-1.59-.65-1.34-.53c-.34-.13-.69-.27-1.05-.39l-1.41-.51-1.05-.37-1.46-.49c-.61-.2-1.22-.4-1.84-.58l-1.66-.5c-1.12-.33-2.24-.63-3.37-.92s-2.11-.52-3.18-.76-2.15-.46-3.23-.66l-1.22-.22c-.9-.17-1.8-.31-2.71-.45l-1.76-.25-1.26-.16-1.27-.15-1.59-.16-1.21-.11c-.52-.05-1-.09-1.58-.12l-.3,0c-.57,0-1.14-.08-1.71-.1l-1.81-.08c-.89,0-1.77-.05-2.67-.05h-1c-.9,0-1.78,0-2.67.05l-1.81.08c-.57,0-1.14.06-1.71.1l-.3,0c-.53,0-1.06.07-1.58.12l-1.21.11-1.59.16-1.27.15-1.26.16-1.76.25c-.91.14-1.81.28-2.71.45l-1.22.22c-1.08.2-2.16.42-3.23.66s-2.13.49-3.18.76-2.25.59-3.37.92l-1.66.5c-.62.18-1.23.38-1.84.58l-1.46.49-1.05.37-1.41.51c-.36.12-.71.26-1.05.39l-1.34.53-1.59.65-1.58.67-1.57.7q-2.36,1.07-4.62,2.24l-1.52.8h0l-1.49.82-1.48.84h0a106.8,106.8,0,0,0-17.66,12.81c-.46.4-.91.81-1.36,1.23s-.82.76-1.23,1.16-.86.81-1.28,1.23l-.61.61h0l-1.23,1.24c-.81.84-1.61,1.69-2.39,2.56s-1.55,1.74-2.31,2.63c-.52.61-1,1.23-1.54,1.85-.88,1.09-1.74,2.19-2.59,3.32q-1.89,2.54-3.64,5.17t-3.33,5.4c-.29.49-.57,1-.84,1.48-.84,1.49-1.63,3-2.39,4.53-.26.51-.51,1-.75,1.54-.34.7-.66,1.4-1,2.11q-.34.75-.66,1.5c-.45,1-.89,2.11-1.3,3.18-.23.55-.44,1.11-.65,1.67-.07.17-.13.34-.19.51-.2.55-.4,1.1-.59,1.66q-.18.48-.33,1c-.23.67-.45,1.34-.66,2s-.46,1.46-.67,2.2-.39,1.34-.57,2-.29,1.1-.43,1.66q-.43,1.69-.81,3.42c-.13.57-.25,1.14-.36,1.7-.16.77-.31,1.55-.45,2.33-.09.5-.17,1-.26,1.5l-.21,1.39c-.09.57-.17,1.15-.25,1.73a1,1,0,0,1,0,.17l0,.21c-.1.75-.19,1.51-.26,2.26,0,.28-.06.55-.09.83s0,.33-.05.5c-.05.46-.09.93-.13,1.39l0,.37-.09,1.25c0,.26,0,.52-.05.79,0,.45-.05.91-.07,1.37l-.06,1.38c0,.17,0,.34,0,.51s0,.34,0,.51l0,1v.23c0,.19,0,.39,0,.59a1.27,1.27,0,0,0,0,.2v0a.14.14,0,0,0,0,.09v0a1.85,1.85,0,0,0,0,.24,1.28,1.28,0,0,0,0,.19v.09a.28.28,0,0,0,0,.09c0,.16,0,.32,0,.48v.34l0,1c0,.17,0,.34,0,.51s0,.34,0,.51l.06,1.38c0,.46,0,.92.07,1.37,0,.27,0,.53.05.79s.05.72.08,1.08c0,.06,0,.11,0,.17l0,.37c0,.46.08.93.13,1.39,0,.17,0,.33.05.5,0,.51.1,1,.16,1.55s.12,1,.19,1.54l0,.21a1,1,0,0,1,0,.17c.08.58.16,1.16.25,1.73l.21,1.39c.09.5.17,1,.26,1.5.14.78.29,1.56.45,2.33.11.56.23,1.13.36,1.7q.38,1.73.81,3.42c.14.56.28,1.11.43,1.66s.37,1.35.57,2,.43,1.47.67,2.2.37,1.16.57,1.74l.09.28q.15.48.33,1c.19.56.39,1.11.59,1.66.06.17.12.34.19.51.21.56.42,1.12.65,1.67.09.24.19.49.29.73.17.46.36.91.55,1.36s.3.73.46,1.09.43,1,.66,1.5l.25.55c.24.52.48,1,.73,1.56s.49,1,.75,1.54.56,1.12.85,1.68l.72,1.35c.26.5.54,1,.82,1.5s.55,1,.84,1.48.59,1,.89,1.51c.61,1,1.23,2,1.86,3s1.18,1.79,1.78,2.67c.44.64.89,1.28,1.35,1.91q.94,1.3,1.92,2.58c.33.42.65.84,1,1.26q1.13,1.44,2.31,2.82c.76.89,1.53,1.77,2.31,2.63s1.58,1.72,2.39,2.56l1.23,1.24h0l.61.61c.42.42.85.83,1.28,1.23s.82.78,1.23,1.16.9.83,1.36,1.23c.68.61,1.36,1.2,2.06,1.79s1.39,1.17,2.1,1.74,1.23,1,1.86,1.47l0,0c.45.35.91.69,1.37,1l1.39,1c1.09.79,2.2,1.55,3.33,2.29q.89.6,1.8,1.17l1.29.81.18.11c.56.35,1.12.69,1.69,1l.56.33h0l1.48.84,1.49.82h0l1.52.8,1.83.92,1.23.59,1.56.73,1.57.7,1.58.67,1.59.65,1.34.53c.34.13.69.27,1.05.39l1.41.51,1.05.37,1.46.49.28.09,1.56.49,1.66.5c1.12.33,2.24.63,3.37.92s2.11.52,3.18.76,2.15.46,3.23.66l1.22.22,1,.17,1.75.28,1.76.25,1.26.16,1.27.15,1.59.16,1.21.11c.52.05,1,.09,1.58.12l.3,0,1.71.09,1.81.08,1.82,0h2.66l1.82,0,1.81-.08,1.71-.09.3,0c.53,0,1.06-.07,1.58-.12l1.21-.11,1.59-.16c.42,0,.85-.09,1.27-.15l1.26-.16,1.76-.25,1.75-.28,1-.17,1.22-.22c1.08-.2,2.16-.42,3.23-.66l1.48-.35,1.7-.41c1.13-.29,2.25-.59,3.37-.92l1.66-.5,1.56-.49.28-.09,1.46-.49,1.05-.37,1.41-.51c.36-.12.71-.26,1.05-.39l1.34-.53,1.59-.65,1.58-.67,1.57-.7,1.56-.73,1.23-.59,1.83-.92,1.52-.8h0l1.49-.82,1.48-.84h0l.56-.33c.57-.33,1.13-.67,1.69-1l.18-.11,1.29-.81c.59-.37,1.18-.75,1.76-1.14l0,0c.45-.29.9-.6,1.34-.9.67-.45,1.33-.92,2-1.39l1.39-1c.46-.34.92-.68,1.37-1l0,0q.95-.72,1.86-1.47,1.07-.85,2.1-1.74l1-.89q.51-.43,1-.9c.46-.4.91-.81,1.36-1.23s.82-.76,1.23-1.16.86-.81,1.28-1.23l.61-.61h0l1.23-1.24c.81-.84,1.61-1.69,2.39-2.56s1.55-1.74,2.31-2.63,1.56-1.86,2.31-2.82c.34-.42.66-.84,1-1.26s.71-.93,1.05-1.4.59-.79.87-1.18c.46-.63.91-1.27,1.35-1.91.6-.88,1.2-1.77,1.78-2.67s1.25-2,1.86-3c.3-.5.6-1,.89-1.51s.57-1,.84-1.48.55-1,.82-1.5l.72-1.35c.29-.56.57-1.12.85-1.68s.51-1,.75-1.54.49-1,.73-1.56l.25-.55q.35-.75.66-1.5c.16-.36.31-.73.46-1.09s.38-.9.55-1.36c.1-.24.2-.49.29-.73.23-.55.44-1.11.65-1.67.07-.17.13-.34.19-.51.2-.55.4-1.1.59-1.66q.18-.48.33-1l.09-.28c.2-.58.39-1.15.57-1.74s.46-1.46.67-2.2.39-1.34.57-2,.29-1.1.43-1.66q.43-1.69.81-3.42c.13-.57.25-1.14.36-1.7.16-.77.31-1.55.45-2.33.09-.5.17-1,.26-1.5l.21-1.39c.09-.57.17-1.15.25-1.73a1,1,0,0,1,0-.17l0-.21c.07-.52.13-1,.19-1.54.13-1.14.25-2.29.34-3.44l0-.37c0-.06,0-.11,0-.17,0-.36.05-.72.08-1.08s0-.52,0-.79c0-.45.06-.91.07-1.37l.06-1.38c0-.17,0-.34,0-.51,0-.51,0-1,0-1.55V541a.49.49,0,0,1,0-.12v-.36a.28.28,0,0,0,0-.09v-.13a.22.22,0,0,0,0-.08v-.07a.53.53,0,0,0,0-.13v-.25a.27.27,0,0,0,0-.09A.81.81,0,0,0,646.51,539.5ZM540,623.63A83.63,83.63,0,1,1,623.65,540,84.11,84.11,0,0,1,540,623.63Z"/><path class="cls-17" d="M539.76,433.48h0Z"/><path class="cls-17" d="M540.15,433.48h0Z"/><path class="cls-17" d="M593,447.78h0l-1.48-.84C592,447.22,592.53,447.5,593,447.78Z"/><path class="cls-17" d="M628.88,481.6q-1.75-2.64-3.64-5.17C626.5,478.12,627.72,479.84,628.88,481.6Z"/><path class="cls-17" d="M633.05,488.48c-.27-.49-.55-1-.84-1.48q-1.59-2.76-3.33-5.4,1.75,2.64,3.34,5.4C632.5,487.49,632.78,488,633.05,488.48Z"/><path class="cls-17" d="M646.52,539.5v.16a.81.81,0,0,0,0-.16c0-.2,0-.4,0-.59C646.51,539.11,646.52,539.3,646.52,539.5Z"/><path class="cls-17" d="M646.52,540v.28a.22.22,0,0,0,0-.08v-.07A.53.53,0,0,0,646.52,540Z"/><path class="cls-17" d="M646.53,540.5h0a.28.28,0,0,0,0-.09v-.13A1.55,1.55,0,0,1,646.53,540.5Z"/><path class="cls-2" d="M540.15,646.52h0Z"/><path class="cls-2" d="M540.48,646.51h0Z"/><path class="cls-2" d="M593,632.21h0c-.49.28-1,.56-1.48.83Z"/><path class="cls-2" d="M632.21,593c.29-.49.57-1,.84-1.48-.27.5-.55,1-.83,1.48s-.59,1-.9,1.51C631.62,594,631.92,593.51,632.21,593Z"/><path class="cls-2" d="M646.52,540.41v.09c0,.12,0,.24,0,.36v-.36A.28.28,0,0,0,646.52,540.41Z"/><path class="cls-2" d="M646.52,540v.28a.22.22,0,0,0,0-.08v-.07A.53.53,0,0,0,646.52,540Z"/><path class="cls-5" d="M646.52,540.28a1.55,1.55,0,0,1,0,.22h0Z"/><path class="cls-5" d="M646.53,539.5a.86.86,0,0,1,0,.16v-.16Z"/><path class="cls-2" d="M540.15,646.52h0Z"/><path class="cls-2" d="M540.48,646.51h0Z"/><path class="cls-2" d="M591.54,633.05l1.48-.84h0C592.53,632.5,592,632.78,591.54,633.05Z"/><path class="cls-2" d="M632.22,593c-.29.51-.59,1-.9,1.51.3-.5.6-1,.89-1.51Z"/><rect class="cls-43" x="646.52" y="646.52" width="53.52" height="53.49"/><path class="cls-44" d="M860.57,646.52A53.47,53.47,0,0,1,807.07,700V646.52Z"/><rect class="cls-45" x="753.56" y="646.52" width="53.51" height="53.49"/><rect class="cls-46" x="700.04" y="753.53" width="53.52" height="53.52"/><rect class="cls-47" x="646.52" y="753.53" width="53.52" height="53.52"/><rect class="cls-48" x="593.02" y="753.53" width="53.5" height="53.52"/><rect class="cls-49" x="486.98" y="753.53" width="106.04" height="53.52"/><path class="cls-50" d="M860.57,753.53a53.52,53.52,0,0,1-53.51,53.52,53.5,53.5,0,0,1-53.5,53.5v-107Z"/><path class="cls-16" d="M967.59,539.5c0,.17,0,.33,0,.5,0-.17,0-.33,0-.5Z"/><path class="cls-17" d="M539.71,646.52h0Z"/><path class="cls-17" d="M540.15,646.52h0Z"/><path class="cls-17" d="M593,632.21h0c-.49.28-1,.56-1.48.83Z"/><path class="cls-17" d="M633.05,591.52c-.27.5-.55,1-.83,1.48s-.59,1-.9,1.51c.3-.5.6-1,.89-1.51S632.78,592,633.05,591.52Z"/><path class="cls-17" d="M646.52,540.41v.09c0,.12,0,.24,0,.36v-.36A.28.28,0,0,0,646.52,540.41Z"/><path class="cls-17" d="M646.52,540v.28a.22.22,0,0,0,0-.08v-.07A.53.53,0,0,0,646.52,540Z"/><path class="cls-17" d="M646.53,539.5a.86.86,0,0,1,0,.16.81.81,0,0,0,0-.16Z"/><path class="cls-51" d="M985.41,485.73a440.79,440.79,0,0,0-9.77-53.5h0q-3.54-14.4-8.07-28.56-4-12.57-8.79-24.94-2.58-6.72-5.39-13.36A444.21,444.21,0,0,0,934,325.21q-9.25-17-20-33.1-6.88-10.39-14.37-20.4h0a452.6,452.6,0,0,0-39.12-45.62l-3.3-3.33q-2.29-2.3-4.62-4.55a449.88,449.88,0,0,0-45.58-38.79q-10.32-7.68-21.06-14.72-15.79-10.38-32.46-19.39-18.91-10.25-38.89-18.69-7.26-3.08-14.6-5.87h0q-13.68-5.24-27.63-9.54h0q-12.81-4-25.83-7.13A442.12,442.12,0,0,0,593,94.44a453.1,453.1,0,0,0-53-3.09h-.49A452.39,452.39,0,0,0,486,94.56a438.57,438.57,0,0,0-53.51,9.73q-12.53,3.08-24.86,6.89h0q-14.43,4.45-28.6,9.92h0q-6.86,2.63-13.63,5.5-20.48,8.65-39.87,19.23Q309.35,154.6,294,164.69q-11.24,7.37-22,15.43a451.62,451.62,0,0,0-44.61,38.08q-2.33,2.25-4.62,4.55c-1.43,1.44-2.86,2.88-4.27,4.33h0a452.25,452.25,0,0,0-38.14,44.61h0q-8,10.71-15.34,21.86-10.15,15.4-19,31.64a444.21,444.21,0,0,0-19.38,40.15q-2.81,6.64-5.39,13.36a441.69,441.69,0,0,0-16.86,53.5h0a440.79,440.79,0,0,0-9.77,53.5,452.69,452.69,0,0,0-3.24,53.51V540a452.67,452.67,0,0,0,3.06,52.74h0a443.37,443.37,0,0,0,26.22,107q2.85,7.49,6,14.88,8.38,19.82,18.55,38.62,9.18,17,19.82,33.17,6.81,10.35,14.21,20.33a449.16,449.16,0,0,0,39.28,46.15h0c1.41,1.45,2.84,2.89,4.27,4.33l3.05,3A450.68,450.68,0,0,0,272,899.88q9.66,7.22,19.71,13.89h0q16.43,10.94,33.79,20.38,19.38,10.58,39.87,19.23,6.78,2.86,13.63,5.5h0q11.78,4.54,23.74,8.39,14.75,4.74,29.76,8.43A438.57,438.57,0,0,0,486,985.44a452.39,452.39,0,0,0,53.5,3.21H540a453.1,453.1,0,0,0,53-3.09A442.12,442.12,0,0,0,646.53,976q15.51-3.78,30.73-8.67,11.47-3.69,22.77-8h0q7.34-2.79,14.6-5.87,20-8.45,38.89-18.69,17.88-9.66,34.77-20.92h0q9.54-6.33,18.74-13.18a450.91,450.91,0,0,0,47.15-40.32l3-3,3.3-3.33a451.45,451.45,0,0,0,40.26-47.16q6.88-9.27,13.24-18.87,11.18-16.82,20.79-34.63,10.17-18.78,18.55-38.62,3.14-7.39,6-14.88,4.44-11.61,8.2-23.42,4.77-14.91,8.45-30.1a442,442,0,0,0,9.57-53.49h0A452.67,452.67,0,0,0,988.65,540v-.76A452.69,452.69,0,0,0,985.41,485.73Zm-1.87,107h0a440.57,440.57,0,0,1-9.66,53.49q-2.85,11.65-6.31,23-4.68,15.48-10.46,30.47a440.94,440.94,0,0,1-24.75,53.5q-8.55,15.69-18.31,30.59-7.65,11.71-16,22.91a450.42,450.42,0,0,1-37.48,44q-4.68,4.85-9.53,9.54a448.47,448.47,0,0,1-44,37.54q-11.13,8.33-22.77,16h0q-15,9.83-30.74,18.44A442.5,442.5,0,0,1,700,957h0q-14.65,5.65-29.79,10.27-11.72,3.59-23.71,6.53a441.31,441.31,0,0,1-53.51,9.7,446.27,446.27,0,0,1-53,3.14h-.49a445.77,445.77,0,0,1-53.5-3.26,439.6,439.6,0,0,1-53.51-9.83q-11.49-2.84-22.74-6.28-15.63-4.75-30.76-10.65h0a442.92,442.92,0,0,1-53.5-25q-15.25-8.37-29.76-17.9h0q-12.15-8-23.74-16.69a447.81,447.81,0,0,1-43-36.81q-5.34-5.19-10.5-10.55h0a449.14,449.14,0,0,1-36.5-43q-8.9-11.91-17-24.4-9.21-14.19-17.34-29.1A442.76,442.76,0,0,1,96.46,592.75h0A445.92,445.92,0,0,1,93.35,540c0-.25,0-.51,0-.76a443.74,443.74,0,0,1,3.28-53.51,439.14,439.14,0,0,1,9.86-53.5h0a443.66,443.66,0,0,1,42-107q7.76-14.1,16.5-27.57,8.61-13.31,18.14-25.93h0a447.34,447.34,0,0,1,35.34-41.41h0q5.91-6.17,12.09-12.08A446.7,446.7,0,0,1,272,182.92q12.7-9.57,26.1-18.23t27.41-16.37A442.92,442.92,0,0,1,379,123.37h0q17.6-6.84,35.88-12.18h0q8.71-2.55,17.59-4.74A439.6,439.6,0,0,1,486,96.61a445.77,445.77,0,0,1,53.5-3.26H540a446.27,446.27,0,0,1,53,3.14,441.31,441.31,0,0,1,53.51,9.7q9.36,2.3,18.56,5h0Q682.9,116.38,700,123a0,0,0,0,1,0,0,442.5,442.5,0,0,1,53.49,24.78q14.54,7.93,28.39,16.91,12.87,8.33,25.13,17.5a447.94,447.94,0,0,1,42.38,36q5.67,5.43,11.12,11.07a449.25,449.25,0,0,1,36.32,42.43h0q9,11.93,17.17,24.44,9.27,14.18,17.47,29.06a441.83,441.83,0,0,1,25,53.51q6.12,15.72,11.05,32,3.23,10.65,5.92,21.51h0a439.14,439.14,0,0,1,9.86,53.5,443.74,443.74,0,0,1,3.28,53.51c0,.25,0,.51,0,.76A445.92,445.92,0,0,1,983.54,592.74Z"/></svg>